<svg viewBox="0 0 512 512" fill="none" xmlns="http://www.w3.org/2000/svg">
<path d="M263.968 512C130.471 512 29.2649 418.271 29.2649 260.116C29.2649 95.951 127.23 0 269.888 0C456.451 0 477.8 156.771 481.853 162.875L355.429 191.952C351.469 175.27 341.542 111.106 264.954 111.106C185.637 111.106 159.579 173.54 159.579 253.151C159.579 333.916 182.501 400.895 262.981 400.895C347.716 400.895 355.289 306.228 358.988 298.42L482.735 336.192C477.24 345.488 456.272 512 263.968 512V512ZM269.888 30C139.971 30 59.2649 118.175 59.2649 260.116C59.2649 394.906 139.616 482 263.968 482C357.133 482 416.638 440.802 445.451 356.178L380.247 336.275C362.007 394.653 322.917 430.895 262.981 430.895C164.392 430.895 129.579 351.854 129.579 253.151C129.579 129.401 189.221 81.106 264.954 81.106C318.305 81.106 359.998 109.51 376.917 156.227L443.506 140.912C409.405 49.725 331.147 30 269.888 30V30Z" fill="#00B894"/>
</svg>
