<svg viewBox="0 0 512 512" fill="none" xmlns="http://www.w3.org/2000/svg">
<path d="M475.803 5.184C472.763 1.888 468.507 0 463.995 0H47.995C43.515 0 39.227 1.888 36.187 5.184C33.179 8.512 31.675 12.928 32.059 17.376L69.947 449.376C70.523 456.032 75.131 461.568 81.531 463.392L251.643 511.392C253.083 511.808 254.523 512 255.995 512C257.467 512 258.939 511.808 260.347 511.424L430.395 463.456C436.795 461.632 441.371 456.064 441.979 449.44L479.931 17.408C480.348 12.928 478.843 8.512 475.803 5.184ZM411.099 435.616L255.995 479.36L100.859 435.584L65.467 32H446.523L411.099 435.616Z" fill="#00B894"/>
<path d="M379.675 101.056C376.667 97.824 372.443 96 367.995 96H143.995C135.163 96 127.995 103.168 127.995 112C127.995 120.832 135.163 128 143.995 128H350.907L336.731 340.224L255.995 367.136L175.995 340.48V320C175.995 311.168 168.827 304 159.995 304C151.163 304 143.995 311.168 143.995 320V352C143.995 358.88 148.411 364.992 154.939 367.2L250.939 399.2C252.571 399.712 254.299 400 255.995 400C257.723 400 259.387 399.712 261.051 399.168L357.051 367.168C363.227 365.12 367.515 359.552 367.963 353.056L383.963 113.056C384.251 108.64 382.683 104.288 379.675 101.056Z" fill="#00B894"/>
<path d="M359.355 224H147.835C139.003 224 131.835 231.168 131.835 240C131.835 248.832 139.003 256 147.835 256H359.355C368.219 256 375.355 248.832 375.355 240C375.355 231.168 368.187 224 359.355 224Z" fill="#00B894"/>
</svg>
