<svg viewBox="0 0 512 512" fill="none" xmlns="http://www.w3.org/2000/svg">
<path d="M475.803 5.184C472.763 1.888 468.507 0 463.995 0H47.995C43.515 0 39.227 1.888 36.187 5.184C33.179 8.512 31.675 12.928 32.059 17.376L69.947 449.376C70.523 456.032 75.131 461.568 81.531 463.392L251.643 511.392C253.083 511.808 254.523 512 255.995 512C257.467 512 258.939 511.808 260.347 511.424L430.395 463.456C436.795 461.632 441.371 456.064 441.979 449.44L479.931 17.408C480.348 12.928 478.843 8.512 475.803 5.184ZM411.099 435.616L255.995 479.36L100.859 435.584L65.467 32H446.523L411.099 435.616Z" fill="#00B894"/>
<path d="M367.995 224H159.995V128H367.995C376.827 128 383.995 120.832 383.995 112C383.995 103.168 376.827 96 367.995 96H143.995C135.163 96 127.995 103.168 127.995 112V240C127.995 248.832 135.163 256 143.995 256H349.563L337.563 339.936L255.995 367.136L175.995 340.48V304C175.995 295.168 168.827 288 159.995 288C151.163 288 143.995 295.168 143.995 304V352C143.995 358.88 148.411 364.992 154.939 367.2L250.939 399.2C252.571 399.712 254.299 400 255.995 400C257.723 400 259.387 399.712 261.051 399.168L357.051 367.168C362.811 365.248 366.971 360.256 367.835 354.24L383.835 242.24C384.507 237.664 383.131 232.992 380.091 229.504C377.051 226.016 372.635 224 367.995 224Z" fill="#00B894"/>
</svg>
