<svg viewBox="0 0 512 512" fill="none" xmlns="http://www.w3.org/2000/svg">
<path d="M212.253 390.24L151.923 450.571C126.911 475.583 86.4055 475.583 61.4145 450.576C36.4185 425.58 36.4185 385.071 61.4095 360.08L182.092 239.397C207.083 214.405 247.592 214.405 272.583 239.397C280.914 247.728 294.423 247.728 302.754 239.397C311.085 231.066 311.085 217.558 302.754 209.227C261.1 167.573 193.576 167.573 151.923 209.227L31.2405 329.909C-10.4135 371.563 -10.4135 439.086 31.2405 480.74C72.8895 522.416 140.418 522.416 182.094 480.74L242.424 420.409C250.755 412.078 250.755 398.57 242.424 390.239C234.093 381.908 220.584 381.909 212.253 390.24Z" fill="#00B894"/>
<path d="M480.745 31.2405C439.091 -10.4135 371.546 -10.4135 329.892 31.2405L257.508 103.624C249.177 111.955 249.177 125.464 257.508 133.795C265.839 142.126 279.346 142.126 287.677 133.795L360.061 61.4105C385.052 36.4185 425.582 36.4185 450.574 61.4105C475.565 86.4015 475.565 126.911 450.574 151.902L317.839 284.638C292.847 309.63 252.339 309.63 227.348 284.638C219.017 276.307 205.509 276.307 197.178 284.638C188.847 292.969 188.847 306.478 197.178 314.809C238.832 356.463 306.355 356.463 348.009 314.809L480.745 182.073C522.399 140.419 522.399 72.8945 480.745 31.2405Z" fill="#00B894"/>
</svg>
