<svg viewBox="0 0 512 512" fill="none" xmlns="http://www.w3.org/2000/svg">
<path d="M437 146H366V75C366 33.6445 332.355 0 291 0H221C179.645 0 146 33.6445 146 75V146H75C33.6445 146 0 179.645 0 221V291C0 332.355 33.6445 366 75 366H146V437C146 478.355 179.645 512 221 512H291C332.355 512 366 478.355 366 437V366H437C478.355 366 512 332.355 512 291V221C512 179.645 478.355 146 437 146ZM75 336C50.1875 336 30 315.812 30 291V221C30 196.188 50.1875 176 75 176H256C264.285 176 271 169.285 271 161C271 152.715 264.285 146 256 146H176V75C176 50.1875 196.188 30 221 30H291C315.812 30 336 50.1875 336 75V241H161C152.715 241 146 247.715 146 256V336H75ZM482 291C482 315.812 461.812 336 437 336H256C247.715 336 241 342.715 241 351C241 359.285 247.715 366 256 366H336V437C336 461.812 315.812 482 291 482H221C196.188 482 176 461.812 176 437V271H351C359.285 271 366 264.285 366 256V176H437C461.812 176 482 196.188 482 221V291Z" fill="#00B894"/>
<path d="M236 90C236 98.2852 229.285 105 221 105C212.715 105 206 98.2852 206 90C206 81.7148 212.715 75 221 75C229.285 75 236 81.7148 236 90Z" fill="#00B894"/>
<path d="M306 422C306 430.285 299.285 437 291 437C282.715 437 276 430.285 276 422C276 413.715 282.715 407 291 407C299.285 407 306 413.715 306 422Z" fill="#00B894"/>
</svg>
