<svg viewBox="0 0 512 512" fill="none" xmlns="http://www.w3.org/2000/svg">
<g clip-path="url(#clip0)">
<path d="M207.078 285.199C207.078 267.395 174.383 274.336 174.383 250.191C174.383 235.301 186.855 230.875 197.621 230.875C204.16 230.875 215.93 232.586 215.93 238.117C215.93 240.133 214.523 243.852 211.504 243.852C208.789 243.852 206.172 240.031 197.621 240.031C190.277 240.031 185.047 242.848 185.047 249.184C185.047 264.074 217.742 257.332 217.742 284.094C217.742 298.48 208.082 305.523 194.805 305.523C181.727 305.523 172.57 298.68 172.57 293.652C172.57 291.234 174.684 287.918 177.199 287.918C180.82 287.918 183.234 295.863 194.402 295.863C201.645 295.863 207.078 292.441 207.078 285.199Z" fill="#00B894"/>
<path d="M243.699 263.672H259.191C261.406 263.672 262.715 265.684 262.715 267.996C262.715 269.906 261.605 272.121 259.191 272.121H243.699V295.262H273.578C275.789 295.262 277.098 297.473 277.098 300.09C277.098 302.301 275.992 304.715 273.578 304.715H237.766C235.449 304.715 233.035 303.508 233.035 301.195V234.695C233.035 232.383 235.449 231.176 237.766 231.176H273.578C275.992 231.176 277.098 233.59 277.098 235.805C277.098 238.418 275.789 240.633 273.578 240.633H243.699V263.672Z" fill="#00B894"/>
<path d="M289.273 282.887V253.609C289.273 237.312 299.031 231.176 311.809 231.176C324.484 231.176 334.445 237.312 334.445 253.609V282.887C334.445 299.184 324.484 305.32 311.809 305.32C299.035 305.32 289.273 299.184 289.273 282.887ZM323.781 253.609C323.781 244.758 319.254 240.633 311.809 240.633C304.266 240.633 299.938 244.758 299.938 253.609V282.887C299.938 291.738 304.266 295.863 311.809 295.863C319.254 295.863 323.781 291.738 323.781 282.887V253.609Z" fill="#00B894"/>
<path d="M379.926 44.7109C379.926 49.9062 375.711 54.1211 370.516 54.1211C365.32 54.1211 361.105 49.9062 361.105 44.7109C361.105 39.5156 365.32 35.3008 370.516 35.3008C375.711 35.3008 379.926 39.5156 379.926 44.7109Z" fill="#00B894"/>
<path d="M425.031 44.7109C425.031 49.9062 420.816 54.1211 415.621 54.1211C410.426 54.1211 406.211 49.9062 406.211 44.7109C406.211 39.5156 410.426 35.3008 415.621 35.3008C420.816 35.3008 425.031 39.5156 425.031 44.7109Z" fill="#00B894"/>
<path d="M470.137 44.7109C470.137 49.9062 465.922 54.1211 460.727 54.1211C455.531 54.1211 451.316 49.9062 451.316 44.7109C451.316 39.5156 455.531 35.3008 460.727 35.3008C465.922 35.3008 470.137 39.5156 470.137 44.7109Z" fill="#00B894"/>
<path d="M233.512 37.2109H50.8594C46.7188 37.2109 43.3594 40.5664 43.3594 44.7109C43.3594 48.8516 46.7188 52.2109 50.8594 52.2109H233.512C237.652 52.2109 241.012 48.8516 241.012 44.7109C241.012 40.5664 237.652 37.2109 233.512 37.2109Z" fill="#00B894"/>
<path d="M345.219 181.707C321.242 157.734 289.367 144.531 255.465 144.531C221.559 144.531 189.684 157.734 165.707 181.707C116.219 231.199 116.219 311.727 165.707 361.219C189.684 385.191 221.559 398.395 255.465 398.395C289.367 398.395 321.242 385.191 345.219 361.219C394.711 311.727 394.711 231.199 345.219 181.707ZM334.613 350.609C313.473 371.754 285.363 383.395 255.465 383.395C225.566 383.395 197.457 371.75 176.316 350.609C132.672 306.969 132.672 235.957 176.316 192.312C197.457 171.172 225.566 159.531 255.465 159.531C285.363 159.531 313.473 171.172 334.613 192.312C378.254 235.957 378.254 306.969 334.613 350.609Z" fill="#00B894"/>
<path d="M504.5 174.84C500.359 174.84 497 178.195 497 182.34V485.809C497 491.98 491.98 497 485.809 497H466.984L482.566 481.418C485.699 478.285 487.426 474.117 487.426 469.688C487.426 465.258 485.699 461.09 482.566 457.957L412.547 387.938C406.078 381.469 395.555 381.469 389.086 387.938L385.816 391.207L372.656 378.047C429.191 315.953 427.473 219.43 367.48 159.441C305.715 97.6758 205.215 97.6758 143.445 159.441C113.523 189.363 97.0469 229.145 97.0469 271.461C97.0469 313.773 113.523 353.559 143.445 383.48C174.328 414.363 214.895 429.805 255.465 429.805C293.695 429.805 331.926 416.082 362.051 388.652L375.211 401.812L371.941 405.078C368.809 408.215 367.082 412.379 367.082 416.809C367.082 421.242 368.809 425.406 371.941 428.539L440.398 497H26.1914C20.0195 497 15 491.98 15 485.809V420.535C15 416.395 11.6406 413.035 7.5 413.035C3.35938 413.035 0 416.395 0 420.535V485.809C0 500.25 11.75 512 26.1914 512H485.809C500.25 512 512 500.25 512 485.809V182.34C512 178.195 508.641 174.84 504.5 174.84ZM154.051 372.875C126.965 345.785 112.047 309.77 112.047 271.461C112.047 233.152 126.965 197.137 154.051 170.051C182.012 142.09 218.738 128.109 255.465 128.109C292.191 128.109 328.918 142.09 356.875 170.051C412.793 225.969 412.793 316.953 356.875 372.875C300.957 428.793 209.973 428.793 154.051 372.875ZM382.082 416.812C382.082 416.512 382.164 416.074 382.547 415.688L399.691 398.547C400.004 398.234 400.41 398.082 400.816 398.082C401.223 398.082 401.629 398.234 401.941 398.547L471.961 468.566C472.344 468.949 472.426 469.387 472.426 469.688C472.426 469.988 472.344 470.426 471.961 470.812L454.816 487.957C454.195 488.574 453.188 488.574 452.566 487.957L382.547 417.938C382.164 417.551 382.082 417.113 382.082 416.812Z" fill="#00B894"/>
<path d="M485.809 0H26.1914C11.75 0 0 11.75 0 26.1914V390.57C0 394.715 3.35938 398.07 7.5 398.07C11.6406 398.07 15 394.715 15 390.57V89.4219H497V152.145C497 156.289 500.359 159.645 504.5 159.645C508.641 159.645 512 156.289 512 152.145V26.1914C512 11.75 500.25 0 485.809 0V0ZM15 74.4219V26.1914C15 20.0195 20.0195 15 26.1914 15H485.809C491.98 15 497 20.0195 497 26.1914V74.4219H15Z" fill="#00B894"/>
</g>
<defs>
<clipPath id="clip0">
<rect width="512" height="512" fill="white"/>
</clipPath>
</defs>
</svg>
