<svg viewBox="0 0 35 18" fill="none" xmlns="http://www.w3.org/2000/svg">
<path d="M0 0H5.77734L10.9453 13.6875L15.7148 0H21.6211V0.878906H20.1797C19.6719 0.878906 19.3281 0.953125 19.1484 1.10156C18.9766 1.25 18.8906 1.50781 18.8906 1.875V15.5977C18.8906 15.8711 18.9961 16.082 19.207 16.2305C19.418 16.3789 19.7812 16.4531 20.2969 16.4531H21.6211V17.332H13.6992V16.4531H15.1758C15.5977 16.4531 15.9102 16.375 16.1133 16.2188C16.3164 16.0547 16.418 15.8477 16.418 15.5977V0.878906L10.6875 17.332H9.89062L3.72656 0.949219V13.5469C3.72656 14.2969 3.82031 14.8594 4.00781 15.2344C4.19531 15.6016 4.46094 15.8867 4.80469 16.0898C5.15625 16.2852 5.73438 16.4062 6.53906 16.4531V17.332H0V16.4531C1.07031 16.3828 1.79688 16.1523 2.17969 15.7617C2.5625 15.3711 2.75391 14.6797 2.75391 13.6875V1.73438C2.75391 1.4375 2.66406 1.22266 2.48438 1.08984C2.30469 0.949219 1.96875 0.878906 1.47656 0.878906H0V0Z" fill="#00B894"/>
<path d="M18.7383 0H27.7734C29.5469 0 30.9023 0.390625 31.8398 1.17188C32.7852 1.95312 33.2578 2.93359 33.2578 4.11328C33.2578 5.09766 32.9297 5.93359 32.2734 6.62109C31.6172 7.30859 30.6289 7.85156 29.3086 8.25C30.9414 8.59375 32.1641 9.13672 32.9766 9.87891C33.7969 10.6133 34.207 11.543 34.207 12.668C34.207 13.5273 33.9727 14.2891 33.5039 14.9531C33.043 15.6172 32.2695 16.1797 31.1836 16.6406C30.1055 17.1016 28.8789 17.332 27.5039 17.332H18.7383V16.4531H20.168C20.5977 16.4531 20.9102 16.3828 21.1055 16.2422C21.3086 16.1016 21.4102 15.9414 21.4102 15.7617V1.875C21.4102 1.54688 21.3125 1.30078 21.1172 1.13672C20.9219 0.964844 20.6367 0.878906 20.2617 0.878906H18.7383V0ZM23.918 7.96875H27.1992C28.207 7.96875 29.0078 7.67188 29.6016 7.07812C30.2031 6.48438 30.5039 5.51172 30.5039 4.16016C30.5039 3.32422 30.3594 2.67188 30.0703 2.20312C29.7891 1.73438 29.375 1.39453 28.8281 1.18359C28.2891 0.964844 27.3516 0.855469 26.0156 0.855469C25.0703 0.855469 24.4844 0.925781 24.2578 1.06641C24.0312 1.19922 23.918 1.4375 23.918 1.78125V7.96875ZM23.918 8.83594V15.5156C23.918 15.8281 24.0078 16.0625 24.1875 16.2188C24.375 16.375 24.707 16.4531 25.1836 16.4531H27.2812C28.6719 16.4531 29.6992 16.1484 30.3633 15.5391C31.0273 14.9219 31.3594 13.9648 31.3594 12.668C31.3594 11.4805 31.0156 10.5469 30.3281 9.86719C29.6406 9.17969 28.6914 8.83594 27.4805 8.83594H23.918Z" fill="#00B894"/>
</svg>
