<?xml version="1.0" standalone="no"?>
<!DOCTYPE svg PUBLIC "-//W3C//DTD SVG 20010904//EN"
 "http://www.w3.org/TR/2001/REC-SVG-20010904/DTD/svg10.dtd">
<svg version="1.0" xmlns="http://www.w3.org/2000/svg"
 width="1120.000000pt" height="1120.000000pt" viewBox="0 0 1120.000000 1120.000000"
 preserveAspectRatio="xMidYMid meet">
<metadata>
Created by potrace 1.14, written by Peter Selinger 2001-2017
</metadata>
<g transform="translate(0.000000,1120.000000) scale(0.100000,-0.100000)"
fill="#000000" stroke="none">
<path d="M0 8340 l0 -140 28 0 c15 -1 160 -2 322 -4 237 -3 305 -6 345 -19
110 -36 171 -101 181 -195 5 -44 6 -116 5 -257 0 -33 1 -76 2 -95 1 -19 -1
-45 -5 -57 -4 -13 -3 -23 2 -23 5 0 5 -12 0 -29 -4 -16 -6 -32 -3 -35 3 -3 5
-45 5 -93 -2 -239 -2 -310 -1 -375 0 -18 0 -60 0 -93 -1 -113 -1 -150 0 -205
1 -66 1 -150 -1 -205 0 -22 1 -57 2 -78 2 -21 0 -43 -4 -50 -4 -6 -4 -15 -1
-20 3 -5 5 -48 5 -96 0 -47 -1 -113 -1 -146 0 -33 1 -76 2 -95 1 -19 -1 -45
-5 -57 -4 -13 -3 -23 2 -23 5 0 5 -12 0 -29 -4 -16 -6 -32 -3 -35 3 -3 5 -81
4 -173 -1 -92 -2 -172 -2 -178 2 -98 3 -161 2 -210 -1 -95 -1 -173 0 -227 1
-47 0 -213 -2 -283 0 -22 0 -42 1 -45 1 -5 2 -119 1 -245 0 -33 1 -76 2 -95 1
-19 -1 -45 -5 -57 -4 -13 -3 -23 2 -23 5 0 5 -12 0 -29 -4 -16 -6 -32 -3 -35
3 -3 5 -49 4 -103 -1 -54 -2 -107 -1 -118 1 -11 1 -24 2 -30 1 -35 -19 -228
-28 -257 -3 -9 -7 -26 -9 -37 -31 -141 -85 -243 -168 -323 -33 -31 -86 -61
-208 -119 -17 -8 -90 -29 -124 -35 -11 -2 -54 -10 -95 -18 -64 -13 -196 -29
-237 -29 -10 0 -13 -35 -13 -142 l0 -141 1045 0 1045 0 1 33 c0 18 1 62 1 98
0 150 -1 154 -19 153 -117 -3 -364 42 -470 85 -120 49 -225 141 -292 255 -37
64 -75 159 -85 212 -2 14 -7 41 -10 60 -4 19 -10 53 -13 75 -9 59 -12 4245 -4
4245 6 0 17 -27 36 -90 1 -3 5 -12 8 -20 7 -17 258 -682 313 -830 19 -52 44
-120 56 -150 11 -30 24 -64 28 -75 4 -11 22 -58 40 -105 18 -47 36 -94 40
-105 4 -11 18 -47 30 -80 12 -33 26 -69 30 -80 4 -11 13 -36 20 -55 7 -19 16
-44 21 -55 8 -20 94 -247 149 -395 15 -41 35 -92 43 -113 9 -20 16 -38 16 -40
0 -3 9 -29 63 -172 27 -71 69 -182 93 -245 24 -63 112 -297 195 -520 84 -223
162 -432 175 -465 45 -116 162 -428 232 -620 8 -22 20 -53 28 -70 7 -16 18
-46 25 -65 7 -19 16 -44 20 -55 4 -11 18 -47 30 -80 12 -33 26 -69 31 -80 5
-11 28 -74 52 -140 48 -131 123 -330 166 -440 l27 -70 122 -1 c78 -1 125 3
131 10 9 11 50 120 56 146 2 8 22 67 45 130 23 63 43 122 45 130 2 8 21 65 43
125 22 61 59 166 82 235 24 69 47 130 52 136 5 7 8 16 7 20 -1 5 1 18 5 29 30
79 38 102 41 115 2 8 12 40 23 70 11 30 41 116 67 190 25 74 50 144 55 155 5
11 18 47 29 80 10 33 49 146 86 250 36 105 80 230 96 279 16 49 34 97 39 106
5 9 11 28 14 41 3 13 37 114 76 224 39 110 81 232 95 270 30 88 114 329 116
333 1 1 2 5 3 10 1 4 6 21 13 37 21 55 26 70 28 80 2 6 17 51 35 100 17 50 33
95 34 100 2 6 8 23 14 38 7 15 15 40 18 55 4 15 9 31 12 36 6 11 71 194 77
216 2 8 40 119 85 245 45 127 83 237 85 245 2 8 18 53 35 100 17 47 33 90 34
95 2 6 6 17 9 25 3 8 38 110 77 225 40 116 76 219 80 230 5 11 14 38 21 60 7
22 16 45 19 50 3 6 21 58 40 117 19 59 37 108 40 108 7 0 4 -4719 -3 -4753
-10 -47 -58 -113 -107 -145 -86 -57 -142 -65 -465 -66 l-290 -2 0 -140 -1
-140 2326 2 c1279 2 2348 5 2375 8 28 2 75 7 105 10 30 3 66 7 80 10 14 2 43
7 65 10 22 3 56 8 75 11 37 6 275 62 300 71 8 3 16 5 17 5 4 0 167 59 188 68
11 5 45 19 75 31 66 27 185 86 260 129 30 17 65 37 78 43 12 6 22 15 22 20 0
4 5 8 10 8 22 0 134 90 245 196 147 141 287 415 320 627 21 134 26 319 11 412
-15 88 -17 102 -32 163 -30 121 -87 241 -172 362 -62 88 -221 244 -313 305
-41 28 -76 53 -79 56 -17 20 -333 179 -355 179 -4 0 -21 6 -38 14 -77 33 -177
68 -233 81 -10 3 -50 14 -89 25 -38 11 -83 23 -99 26 -16 3 -33 7 -36 9 -4 3
-25 7 -46 11 -58 9 -59 18 -6 33 65 19 226 78 290 107 142 65 170 79 250 126
48 28 121 76 162 106 77 56 260 232 260 250 0 5 7 12 15 16 8 3 15 12 15 20 0
8 4 16 9 18 18 7 93 145 127 236 118 316 99 676 -52 974 -65 128 -210 302
-333 399 -24 19 -49 40 -56 47 -8 6 -16 12 -20 12 -3 0 -28 16 -56 35 -136 93
-419 199 -614 228 -16 3 -41 7 -55 11 -32 7 -96 15 -190 24 -41 4 -995 7
-2119 7 l-2044 0 -14 -40 c-7 -22 -16 -47 -20 -55 -3 -8 -7 -19 -8 -25 -2 -5
-15 -44 -30 -85 -14 -41 -28 -79 -29 -85 -2 -5 -6 -17 -9 -25 -3 -8 -27 -76
-52 -150 -84 -242 -127 -365 -132 -380 -3 -8 -7 -19 -9 -25 -11 -36 -101 -293
-106 -300 -3 -6 -13 -32 -21 -60 -8 -27 -29 -88 -47 -135 -17 -47 -33 -92 -35
-100 -2 -8 -31 -94 -65 -190 -34 -96 -75 -213 -90 -260 -16 -47 -39 -112 -51
-145 -12 -33 -39 -109 -60 -170 -91 -266 -191 -550 -234 -670 -25 -71 -51
-146 -56 -165 -6 -19 -23 -71 -39 -115 -16 -44 -45 -127 -65 -185 -20 -58 -39
-112 -42 -120 -4 -8 -7 -18 -8 -22 -2 -5 -3 -9 -4 -10 -2 -5 -61 -172 -65
-188 -3 -8 -32 -94 -66 -190 -104 -297 -110 -313 -136 -393 -15 -43 -30 -75
-34 -70 -4 4 -19 40 -33 78 -23 64 -67 180 -87 230 -4 11 -18 47 -30 80 -12
33 -29 74 -36 92 -8 17 -17 45 -20 62 -4 17 -10 31 -15 31 -5 0 -8 3 -7 8 0 4
-2 14 -5 22 -3 8 -54 143 -113 300 -58 157 -117 314 -131 350 -13 36 -33 88
-43 115 -10 28 -22 61 -28 75 -5 14 -18 45 -27 70 -10 25 -21 54 -25 65 -5 11
-18 47 -30 80 -12 33 -26 69 -30 80 -4 11 -22 57 -39 103 -17 45 -44 117 -61
160 -16 42 -64 169 -106 282 -42 113 -86 228 -96 255 -47 123 -80 211 -82 220
-2 6 -9 24 -15 40 -7 17 -35 91 -63 165 -27 74 -53 144 -57 155 -5 11 -14 34
-21 50 -11 27 -58 154 -175 465 -19 52 -39 104 -44 115 -10 21 -90 233 -95
250 -2 6 -6 17 -9 25 -3 8 -27 71 -53 140 -25 69 -53 142 -62 163 l-16 37
-923 0 -923 0 0 -140z m8680 -144 c118 -7 247 -21 305 -32 11 -3 36 -7 55 -10
19 -3 46 -9 60 -14 14 -4 39 -12 55 -16 36 -9 34 -8 65 -21 14 -6 42 -18 62
-26 64 -27 170 -101 226 -158 61 -61 137 -171 154 -221 6 -18 14 -38 19 -43 7
-10 46 -140 53 -182 12 -62 17 -106 21 -168 4 -73 7 -186 6 -195 -1 -3 -3 -50
-5 -106 -4 -94 -10 -152 -21 -214 -3 -14 -7 -39 -10 -56 -29 -180 -138 -406
-247 -511 -87 -85 -142 -125 -253 -185 -41 -22 -203 -75 -251 -82 -21 -4 -64
-10 -94 -15 -30 -5 -318 -10 -640 -10 l-586 -1 1 1032 1 1033 23 48 c31 63 79
101 154 122 68 19 77 21 197 30 47 4 86 8 87 9 4 4 476 -3 563 -8z m-2034 -19
c93 -31 153 -86 187 -176 16 -41 17 -213 17 -2325 -1 -1773 -3 -2286 -13
-2302 -21 -37 -55 -74 -66 -74 -6 0 -11 -4 -11 -9 0 -5 -19 -18 -42 -29 -169
-79 -493 -53 -597 48 -82 79 -74 -157 -75 2365 0 1238 3 2272 7 2299 6 48 36
116 61 142 33 33 108 63 174 69 18 1 35 5 38 7 12 13 272 0 320 -15z m2294
-2531 c77 -6 126 -12 170 -22 14 -3 36 -8 50 -10 47 -9 165 -46 178 -56 6 -6
12 -8 12 -4 0 11 175 -85 233 -128 79 -59 155 -133 208 -203 24 -32 46 -60 49
-63 16 -16 109 -203 113 -227 1 -10 5 -23 9 -28 7 -11 38 -126 44 -165 2 -14
6 -34 9 -45 24 -109 24 -421 1 -555 -3 -14 -7 -38 -10 -55 -11 -65 -18 -93
-37 -155 -12 -36 -28 -81 -37 -100 -8 -19 -15 -41 -15 -47 0 -7 -4 -13 -8 -13
-4 0 -10 -9 -14 -20 -21 -67 -179 -258 -243 -294 -9 -5 -25 -17 -35 -26 -10
-10 -59 -38 -110 -63 -163 -80 -330 -123 -552 -143 -101 -9 -959 -9 -1029 0
-142 18 -224 75 -259 181 -6 19 -10 433 -11 1137 l-2 1107 51 3 c87 5 1156 0
1235 -6z"/>
</g>
</svg>
